<?xml version="1.0" standalone="no"?>
<!DOCTYPE svg PUBLIC "-//W3C//DTD SVG 20010904//EN"
 "http://www.w3.org/TR/2001/REC-SVG-20010904/DTD/svg10.dtd">
<svg version="1.0" xmlns="http://www.w3.org/2000/svg"
 width="426.000000pt" height="426.000000pt" viewBox="0 0 426.000000 426.000000"
 preserveAspectRatio="xMidYMid meet">
<metadata>
Created by potrace 1.14, written by Peter Selinger 2001-2017
</metadata>
<g transform="translate(0.000000,426.000000) scale(0.100000,-0.100000)"
fill="#000000" stroke="none">
<path d="M1660 3666 l0 -144 403 -5 c439 -5 485 -10 658 -68 180 -60 312 -142
436 -272 92 -97 140 -167 195 -285 65 -140 90 -251 95 -430 6 -175 -4 -261
-48 -397 -54 -168 -132 -298 -251 -417 -119 -119 -241 -193 -420 -256 -77 -27
-233 -62 -279 -62 -10 0 -27 25 -47 68 -35 76 -196 432 -564 1247 -55 121
-123 271 -151 333 l-52 112 -148 0 -148 0 -36 -77 c-19 -43 -64 -141 -98 -218
-35 -77 -111 -246 -170 -375 -59 -129 -149 -327 -200 -440 -235 -518 -297
-654 -353 -777 -33 -73 -64 -142 -67 -153 -6 -20 -2 -20 903 -20 716 0 912 -3
919 -13 5 -6 30 -59 56 -117 25 -58 95 -215 155 -350 l109 -245 171 -3 172 -2
-24 52 c-13 29 -69 152 -124 273 -54 121 -116 256 -137 300 -58 125 -58 124
-32 129 145 30 195 43 272 68 101 33 239 103 348 174 154 103 345 322 436 502
72 142 130 373 147 579 7 94 -23 313 -62 448 -28 98 -101 260 -156 346 -195
304 -520 520 -902 599 -146 30 -318 40 -677 40 l-329 0 0 -144z m30 -1406
c107 -239 228 -514 271 -610 42 -96 93 -210 112 -252 l36 -78 -625 0 -625 0 6
22 c4 11 25 60 47 107 22 47 75 165 118 261 204 457 438 979 446 992 4 5 10 6
14 1 4 -4 94 -204 200 -443z"/>
</g>
</svg>
